<svg xmlns="http://www.w3.org/2000/svg" xmlns:xlink="http://www.w3.org/1999/xlink" id="Layer_1" x="0" y="0" version="1.1" viewBox="0 0 2101.4 185.8" xml:space="preserve" style="enable-background:new 0 0 2101.4 185.8"><style type="text/css">.st0{fill:#1b6dae}</style><title>kannada font lbtc</title><g><path d="M114.8,171.6c-7.8,0-14.4-1.6-19.8-4.7s-10.3-8-14.6-14.5l-0.4-0.6l-0.4,0.7c-4.1,6.6-9.1,11.5-14.8,14.6 s-13.6,4.6-23.2,4.6c-10.9,0-19.8-3.1-26.3-9.1c-6.3-5.7-9.9-13.9-9.8-22.4c-0.1-4.9,0.9-9.8,2.9-14.4c2.1-4.4,5-8.3,8.5-11.7 c3.7-3.6,9.9-8.2,18.2-13.6c7.8-5,12.9-9.1,15.1-12.2c2.1-2.9,3.3-6.4,3.4-10c0-10.1-6.1-15.2-18-15.2C29.7,63,25.1,64.4,22,67 s-4.9,6.4-4.9,11.4c0,2.1,0.4,4.1,1,6.1c1.2,3.8-0.7,8-4.3,9.6c-1,0.4-2.1,0.7-3.2,0.7c-3.3,0-6.3-2.1-7.5-5.2 c-1.6-4.2-2.5-8.7-2.5-13.2C0.4,68.6,3.9,61.1,10,56.2c6.3-5.3,14.9-8,25.7-8c11.2,0,19.9,2.8,25.7,8.2s8.7,12.7,8.7,21.7 c0,6.3-1.9,12.4-5.6,17.6c-3.7,5.3-11.1,11.5-22,18.4c-4.5,2.8-8.7,5.8-12.7,9.2c-2.3,2-4.2,4.4-5.7,7.1c-1.3,2.7-2,5.6-1.9,8.6 c0,5.3,1.8,9.4,5.4,12.2s8.5,4.2,14.9,4.2c15.7,0,25.4-7.2,28.6-21.4c0.9-3.6,4.2-6.2,7.9-6.2h1.7c3.8,0,7.1,2.6,7.9,6.3 c1.1,5.3,3.7,10.1,7.4,13.9c5,4.9,11.6,7.4,19.5,7.4c8.1,0,14.6-2.9,19.4-8.6s7.3-13.4,7.3-22.8c0-13.8-3.6-25.8-10.7-35.9 c-5.6-7.9-13.4-14.8-23.4-20.3c-4.3-2.4-5.9-7.8-3.5-12.1c1.6-2.9,4.6-4.6,7.8-4.6c1.6,0,3.2,0.4,4.5,1.2 c12.3,7.4,22.1,16.5,29.2,27.1c8.6,12.9,13.1,28.1,13,43.6c0,14.8-4,26.7-11.9,35.5S128.4,171.6,114.8,171.6z" class="st0"/><path d="M276.3,171.6c-8,0-14.8-1.5-20.1-4.4s-10.3-7.9-14.7-14.8l-0.4-0.7l-0.4,0.7c-3.2,5.7-7.8,10.6-13.4,14.1 c-5.4,3.4-12.9,5.1-22,5.1c-11.6,0-20.8-4.3-27.4-12.8s-9.9-20.9-9.9-36.6c0-12.3,2.5-23.3,7.4-32.8c4.7-9.3,12.1-16.9,21.2-21.9 l1.7-0.9h-22.5c-4.4,0-7.9-3.5-7.9-7.9s3.5-7.9,7.9-7.9l0,0h93.3c5.5,0.1,11-0.2,16.5-1.1c3.9-0.7,7-2.2,9-4.5s3.1-5.5,3.1-9.5 c0-7.1-2.7-14.2-8.1-21.2c-1.3-1.7-1.9-4-1.5-6.1c0.3-2.1,1.5-4,3.3-5.1c3.4-2.3,7.9-1.5,10.4,1.7c3.2,4,6,8.4,8.3,13 c2.9,6,4.3,12.6,4.3,19.3c0.2,7-2.4,13.7-7,18.9c-4.7,5.2-11.8,8.5-21.2,9.8l-1.4,0.2l1.2,0.7c9,5.5,16.3,13.4,21,22.8 c5,10.1,7.6,21.3,7.4,32.6c0,15.9-3.4,28.2-10,36.7S288.2,171.6,276.3,171.6z M242.8,127.9c3.4,0,6.2,2.4,6.9,5.7 c1,5.4,3.5,10.4,7.2,14.4c4.6,4.9,11,7.6,17.7,7.5c15.3,0,23.1-11,23.1-32.7c0.1-10-2.1-19.9-6.5-28.9 c-4.2-8.4-10.8-15.5-18.9-20.2c-8.2-4.7-17.9-7.2-28.9-7.2h-3.6c-11.1,0-20.9,2.3-29.2,6.8c-8.2,4.5-14.9,11.3-19.2,19.7 c-4.4,8.5-6.6,18.4-6.6,29.3s1.8,19.4,5.5,24.8s9.5,8.3,17.3,8.3c6.7,0.2,13.1-2.6,17.6-7.4c3.7-4.1,6.2-9.1,7.2-14.5 c0.7-3.3,3.5-5.6,6.9-5.6H242.8z" class="st0"/><path d="M1082.3,171.6c-8,0-14.8-1.5-20.1-4.4c-5.3-2.9-10.3-7.9-14.7-14.8l-0.4-0.7l-0.4,0.7 c-3.2,5.7-7.8,10.6-13.3,14.1c-5.5,3.4-12.9,5.1-22,5.1c-11.6,0-20.8-4.3-27.4-12.8s-9.9-20.9-9.9-36.6c0-12.3,2.5-23.3,7.4-32.8 c4.7-9.3,12.1-16.9,21.2-21.9l1.7-0.9h-22.5c-4.4,0-7.9-3.5-7.9-7.9s3.5-7.9,7.9-7.9l0,0h93.3c5.5,0.1,11-0.2,16.5-1.1 c3.9-0.7,7-2.2,9-4.5s3.1-5.5,3.1-9.5c0-7.1-2.7-14.2-8.1-21.2c-1.3-1.7-1.9-4-1.5-6.1c0.3-2.1,1.5-4,3.3-5.1 c3.4-2.3,7.9-1.5,10.4,1.7c3.2,4,6,8.4,8.3,13c2.9,6,4.3,12.6,4.3,19.3c0.2,7-2.4,13.7-7.1,18.9s-11.8,8.5-21.2,9.8l-1.4,0.2 l1.2,0.7c9,5.5,16.3,13.4,21,22.8c5,10.1,7.6,21.3,7.4,32.6c0,15.9-3.4,28.2-10,36.7S1094.3,171.6,1082.3,171.6z M1048.9,127.9 c3.4,0,6.2,2.4,6.9,5.7c1,5.4,3.5,10.4,7.2,14.4c4.6,4.9,11,7.6,17.7,7.5c15.3,0,23.1-11,23.1-32.7c0.1-10-2.1-19.9-6.5-28.9 c-4.2-8.4-10.8-15.5-18.9-20.2c-8.2-4.7-17.9-7.2-28.9-7.2h-3.6c-11.1,0-20.9,2.3-29.2,6.8c-8.2,4.5-14.9,11.3-19.2,19.7 c-4.4,8.5-6.7,18.4-6.7,29.3s1.8,19.4,5.5,24.8s9.5,8.3,17.3,8.3c6.7,0.2,13.1-2.6,17.6-7.4c3.7-4.1,6.2-9.1,7.2-14.5 c0.7-3.3,3.5-5.6,6.8-5.6H1048.9z" class="st0"/><path d="M516.7,171.6c-11.1,0-20.1-3.2-26.7-9.5s-9.9-14.6-9.9-24.5c0-8.7,2.2-15.6,6.5-20.6 c4.2-4.9,10.5-7.6,16.9-7.4c5.1,0,9.2,1.3,12.1,3.8s4.4,6,4.4,10.4c0.2,3.4-1,6.7-3.1,9.3c-1.8,2.1-5.9,3.8-9.1,3.8h-0.6 c-2.4-0.1-4.7-0.9-6.7-2.2c-2.1-1.6-3.4-3.9-3.7-6.5l-0.3-2l-0.7,1.9c-0.8,2.6-1.2,5.3-1.1,8c0,6.2,1.9,11.3,5.7,15.1 s9.3,5.7,16.3,5.7c9.1,0,16.2-3.4,21-10.1s7.3-16.5,7.3-29.1c0-12.4-2.3-22.4-6.8-29.8c-4.1-7-10.3-12.7-17.6-16.2 c-7.1-3.3-18.3-5-33.3-5h-30.9l0.8,0.8c10.6,11.1,15.5,24.3,15.5,41.5c0,19.1-6.5,34.5-19.2,45.8s-31.4,17-55.4,17 c-14.6,0-27.5-2.8-38.4-8.4c-10.6-5.3-19.5-13.7-25.4-24c-5.9-10.4-8.9-22.5-8.9-36.2c0-10.9,2-20.7,5.9-29s9.3-14.8,16-19.2 c6.8-4.4,14.7-6.7,22.8-6.6c9.1,0,16.4,2.6,21.7,7.7s8,12.1,8,20.9c0,9.6-3.3,17.4-9.9,23.3s-15.6,8.8-27,8.8 c-7.3,0.1-14.5-1.7-20.8-5.4l-0.8-0.5v0.9c-0.1,9.2,2.3,18.3,6.9,26.3c4.7,8,11.6,14.4,20,18.4c8.6,4.3,18.9,6.5,30.4,6.5 c18,0,32.2-4.1,42.1-12.2s15-19.6,15-34.1c0-15.5-7-28.5-21-38.8c-2.6-1.9-4.3-4.8-4.6-8.1c-0.4-3.3,0.7-6.5,2.8-9l1.8-2.1h56.6 c17.2,0,30.7,2.5,40.2,7.4c9.4,4.9,17.2,12.4,22.3,21.7c5.3,9.6,8,22.2,8,37.5c0,17.3-4,30.7-11.9,40.1S531.1,171.6,516.7,171.6z M369.4,62.4c-6.2-0.1-12.3,2.3-16.8,6.7c-4.7,4.4-7.9,10.9-9.7,19.3l-0.1,0.3l0.3,0.2c5.4,3.8,11.8,5.8,18.5,5.8 c7.2,0,12.8-1.5,16.6-4.5s5.9-7.3,5.9-12.7c0-4.7-1.4-8.4-4-11.1C377.5,63.7,373.8,62.4,369.4,62.4z" class="st0"/><path d="M920.9,171.2c-7.8,0-14.4-1.6-19.8-4.7s-10.3-8-14.6-14.5l-0.4-0.7l-0.4,0.7c-4.1,6.6-9.1,11.5-14.8,14.6 s-13.5,4.6-23.2,4.6c-10.9,0-19.8-3.1-26.3-9.1c-6.3-5.7-9.9-13.9-9.8-22.4c-0.1-4.9,0.9-9.8,2.9-14.4c2.1-4.4,5-8.3,8.5-11.7 c3.7-3.6,9.9-8.2,18.2-13.6c7.8-5,12.9-9.1,15.1-12.2c2.2-2.9,3.3-6.4,3.4-10c0-10.1-6.1-15.2-18-15.2c-5.9,0-10.5,1.3-13.6,3.9 c-3.1,2.6-4.8,6.4-4.8,11.4c0,2.1,0.3,4.2,1,6.2c1.2,3.8-0.7,8-4.4,9.6c-1,0.4-2.1,0.7-3.2,0.7c-3.3,0-6.3-2.1-7.4-5.2 c-1.6-4.2-2.5-8.7-2.5-13.2c-0.1-7.8,3.3-15.3,9.4-20.2c6.3-5.3,14.9-8,25.7-8c11.2,0,19.9,2.8,25.7,8.2s8.8,12.7,8.8,21.7 c0,6.3-1.9,12.4-5.6,17.6c-3.7,5.3-11.1,11.5-22,18.4c-4.4,2.8-8.7,5.8-12.7,9.2c-2.3,2-4.2,4.4-5.7,7.1c-1.3,2.7-2,5.6-1.9,8.6 c0,5.3,1.8,9.4,5.4,12.2s8.5,4.2,14.9,4.2c15.7,0,25.3-7.2,28.6-21.4c0.9-3.6,4.2-6.2,7.9-6.2h1.7c3.8,0,7.1,2.6,7.9,6.3 c1.1,5.3,3.7,10.1,7.4,13.9c5,4.9,11.5,7.4,19.5,7.4s14.6-2.9,19.4-8.6s7.2-13.4,7.2-22.8c0-13.8-3.6-25.8-10.7-35.9 c-5.6-7.9-13.5-14.8-23.5-20.3c-4.3-2.4-5.9-7.8-3.5-12.1c1.6-2.9,4.6-4.6,7.8-4.6c1.6,0,3.1,0.5,4.5,1.3 c12.3,7.4,22.1,16.5,29.2,27.1c8.6,12.9,13.1,28,13,43.5c0,14.8-4,26.7-11.9,35.5S934.6,171.2,920.9,171.2z" class="st0"/><path d="M1322.9,171.2c-11.2,0-20.1-3.2-26.7-9.5s-9.9-14.6-9.9-24.5c0-8.7,2.2-15.6,6.5-20.6 c4.2-4.9,10.5-7.6,16.9-7.4c5.1,0,9.2,1.3,12.1,3.8s4.4,6,4.4,10.4c0.2,3.4-1,6.7-3.1,9.3c-1.8,2.1-5.9,3.8-9.1,3.8h-0.6 c-2.4-0.1-4.7-0.9-6.7-2.2c-2.1-1.5-3.4-3.9-3.7-6.5l-0.3-2l-0.7,1.9c-0.8,2.6-1.2,5.3-1.1,8c0,6.2,1.9,11.3,5.7,15.1 s9.3,5.7,16.3,5.7c9.1,0,16.2-3.4,21-10.1s7.3-16.5,7.3-29.1c0-12.4-2.3-22.4-6.8-29.8c-4.1-7-10.3-12.7-17.6-16.2 c-7.2-3.3-18.3-5-33.3-5h-30.9l0.8,0.8c10.6,11.1,15.5,24.3,15.5,41.5c0,19.1-6.4,34.5-19.2,45.8s-31.4,17-55.4,17 c-14.6,0-27.5-2.8-38.4-8.4c-10.6-5.3-19.5-13.7-25.3-24c-5.9-10.4-8.9-22.5-8.9-36.2c0-10.9,2-20.7,5.9-29s9.3-14.8,16-19.2 c6.8-4.4,14.7-6.7,22.8-6.6c9.1,0,16.4,2.6,21.7,7.7s8,12.1,8,20.9c0,9.6-3.3,17.4-9.9,23.3s-15.7,8.8-27,8.8 c-7.3,0.1-14.5-1.8-20.8-5.4l-0.8-0.5v0.9c-0.1,9.2,2.3,18.3,6.9,26.3c4.7,8,11.7,14.4,20,18.4c8.6,4.3,18.8,6.5,30.4,6.5 c18.1,0,32.2-4.1,42.1-12.2s15-19.6,15-34.1c0-15.5-7-28.5-21-38.8c-2.6-1.9-4.3-4.8-4.6-8.1c-0.4-3.3,0.7-6.5,2.8-9l1.8-2.1h56.6 c17.2,0,30.7,2.5,40.2,7.4c9.4,4.9,17.2,12.5,22.3,21.8c5.3,9.6,8,22.2,8,37.5c0,17.3-4,30.7-11.9,40.1S1337.3,171.2,1322.9,171.2z M1175.6,62.1c-6.3-0.1-12.3,2.3-16.8,6.7c-4.7,4.4-7.9,10.9-9.7,19.3l-0.1,0.3l0.3,0.2c5.4,3.8,11.8,5.8,18.4,5.8 c7.2,0,12.8-1.5,16.6-4.5s5.8-7.3,5.8-12.7c0-4.7-1.3-8.4-4-11.1C1183.4,63.4,1180.1,62.1,1175.6,62.1z" class="st0"/><path d="M1643.7,18.8c-2.3-4.6-3.4-7.4-9.8-10.3c-14.6-3.8-26.5,13.2-15.4,2.5c-10.8,9.2,13,3.7,11.5,4.4 c-2.9,1.7-5-4.7-8.3-4.5c0.1,1.6,0.6,3.2,1.6,4.5c5.4,7,8.1,14.1,8.1,21.2c0.2,3.4-0.9,6.7-2.9,9.3c-2,2.3-5,3.9-8.8,4.7 s-9.5,1.2-17,1.2H1518c-4.3,0.2-7.8,3.9-7.6,8.2c0.2,4.3,3.8,7.8,8.2,7.6l88.1-0.1c11.3,0,19.9-1.4,25.4-4.1 c5.5-2.7,9.6-6.4,12.1-10.8s3.8-9.4,3.8-14.5C1648,31.4,1646.6,24.8,1643.7,18.8z" class="st0"/><path d="M1632.7,83.5c-1.6-2-4-3.2-6.6-3.2c-1.7,0-3.4,0.5-4.8,1.5l-0.2,0.2c-1.9,1.3-3.1,3.3-3.5,5.5s0.2,4.4,1.5,6.2 c3.1,4.1,5.8,8.6,8,13.4c3,6.8,4.5,14.2,4.5,21.6c0,8.6-1.9,15.4-5.7,20.4s-9.2,7.5-16,7.5c-4,0.1-7.9-0.8-11.5-2.5 c-3.4-1.9-6.5-4.4-8.9-7.4c-2.7-3.2-6.2-8.7-10.6-16.3c-3.9-6.8-7.4-12-10.6-15.3c-3.1-3.2-6.7-5.8-10.8-7.5 c-4.3-1.7-8.9-2.5-13.5-2.5h-0.6c-8.3-0.1-16.3,3.1-22.3,8.9c-6.7,6.5-10.1,15-10.1,25.1c0,6.1,1,12.1,3,17.9 c1.1,3.3,2.5,6.5,4.2,9.6c1.5,2.7,4.3,4.3,7.3,4.3c1,0,2.1-0.2,3.1-0.6c2.2-0.9,4-2.7,4.8-5c0.8-2.2,0.6-4.7-0.5-6.8 c-3.7-7-5.6-13.7-5.6-20.1c0-5.5,1.4-9.9,4.2-13.1c2.8-3.2,6.7-4.8,11.5-4.8c2.9-0.1,5.7,0.6,8.3,2c2.8,1.8,5.2,4,7.2,6.7 c3.4,4.5,6.4,9.2,9.2,14c3.3,6.1,7.3,11.8,11.8,17.1c3.4,3.9,7.6,7,12.3,9.1c5.1,2.2,10.7,3.3,16.3,3.2c12.5,0,22.7-3.9,29.7-11.9 s10.5-19.4,10.5-33.8C1648.3,111.3,1643,96.8,1632.7,83.5z" class="st0"/><path d="M1577.4,77.6c-3.3,0-6.4,1.3-8.6,3.6c-2.3,2.3-3.5,5.5-3.5,8.7c-0.1,3.2,1.2,6.3,3.5,8.6s5.4,3.6,8.6,3.5 c3.2,0.1,6.3-1.3,8.5-3.6c2.4-2.5,3.6-5.9,3.4-9.3c-0.1-3-1.3-5.8-3.4-7.9C1583.7,78.8,1580.6,77.5,1577.4,77.6z" class="st0"/><path d="M1791.3,172.6c-11.1,0-20.1-3.2-26.7-9.5s-9.9-14.6-9.9-24.5c0-8.6,2.2-15.5,6.6-20.5 c4.2-4.9,10.4-7.7,16.8-7.5c5.1,0,9.2,1.3,12.1,3.8s4.4,6,4.4,10.4c0.2,3.5-1,6.9-3.3,9.5c-2.1,2.3-5,3.6-8.1,3.6 c-2.9,0.1-5.7-0.7-8.2-2.3c-2.1-1.5-3.4-3.9-3.7-6.5l-0.3-2l-0.7,1.9c-0.8,2.6-1.2,5.3-1.1,8c0,6.2,1.9,11.3,5.7,15.1 s9.3,5.7,16.3,5.7c8.8,0,15.8-3.4,20.8-10.1s7.5-16.1,7.5-28.1c0-16.1-4-29.3-12-39.3s-19.2-15.1-33.2-15.1 c-11.8,0-21.2,3.3-27.7,9.9s-9.9,15.8-9.9,27.6c0,4.8,0.3,10.7,0.8,17.3c0.6,6.6,0.8,12.4,0.8,17.2c0,11.3-3.4,20.1-10.1,26.3 s-15.6,9.3-26.5,9.3c-8.2,0-16.3-2.1-23.4-6.1c-6.7-3.9-12.8-8.6-18.1-14.2c-3-3.2-2.9-8.2,0.3-11.2c3.2-3,8.2-2.9,11.2,0.3 c3.4,3.8,7.3,7.1,11.6,9.8c5.6,3.5,12.1,5.3,18.7,5.3c6.5,0,11.5-1.7,14.9-5s5.1-8.3,5.1-14.7c0-6.6-0.3-13.2-1-19.6 s-0.9-12-0.9-16.7c0-10.2,2.3-19.3,6.7-27.1c4.4-7.7,11-14,19-17.9c8.7-4.3,18.4-6.4,28.1-6.2c12.8,0,24,2.9,33.4,8.6 c9.5,5.9,17,14.4,21.6,24.6c4.9,10.7,7.4,23,7.4,36.7c0,16.5-4.1,29.7-12.1,39.2S1805.3,172.6,1791.3,172.6z M1894.7,169.6 c-1.5,0-3-0.4-4.3-1.1c-12.6-7.2-22.5-16-29.6-26.1c-8.5-12.2-13-26.8-12.8-41.7c0-15.4,4-28,12-37.4s18.3-14.1,30.8-14.1 c9.7,0,17.4,2.6,22.8,7.7s8.2,12.1,8.2,20.7c0,9.5-3.3,17.3-9.9,23.2s-15.8,8.9-27.3,8.9c-6.9,0.1-13.6-1.5-19.7-4.7l-0.8-0.4 l0.1,0.9c0.7,11,4.9,21.5,12,29.9c5.6,6.6,13.2,12.6,22.6,17.6c2.1,1.1,3.6,3,4.3,5.3c0.6,2.2,0.3,4.6-0.8,6.6l-0.2,0.3 C1900.6,168,1897.8,169.6,1894.7,169.6L1894.7,169.6z M1890.1,63.5c-6.1,0-11.9,2.6-16.1,7c-4.7,4.6-7.7,10.9-9.2,18.7l-0.1,0.3 l0.3,0.2c5.2,3.9,11.5,6,18,6c7.1,0,12.7-1.5,16.5-4.4s5.8-7.3,5.8-12.8C1905.4,68.5,1900.3,63.5,1890.1,63.5z" class="st0"/><path d="M2053.8,172.6c-11.4,0-20.6-3.1-27.4-9.2s-10.2-14.4-10.2-24.8c0-8.6,2.8-16,8.2-21.8c5.3-5.8,12.8-9,20.7-8.8 c7.4,0,13.4,1.8,17.8,5.4c4.4,3.4,6.9,8.7,6.7,14.3c0,2.1-0.2,4.1-0.5,6.2c-0.6,3.3-3.5,5.6-6.9,5.6c-0.2,0-0.4,0-0.7,0l-1-0.1 c-3.6-0.4-6.4-3.5-6.3-7.2c0-3.3-0.9-5.8-2.6-7.5c-1.9-1.7-4.5-2.6-7.1-2.5c-3.6-0.1-7.1,1.5-9.4,4.3s-3.5,6.7-3.5,11.5 c0,6.3,2,11.2,5.8,14.5s9.5,5,17,5c9.7,0,17.2-3.6,22.3-10.7s7.6-17.5,7.6-31v-1.7c0-14.8-3.2-26.8-9.4-35.5s-14.9-13.3-25.8-13.3 c-8.1,0-14.8,2.4-19.9,7.2c-4,3.9-6.8,9-8.1,14.4c-1,3.5-4.2,6-7.9,5.9h-2.4c-3.7,0-6.9-2.5-7.8-6.1c-3.8-14.2-13.9-21.5-30-21.5 c-7.8,0-13.8,1.8-17.9,5.3s-6.2,8.7-6.2,15.1c0,5.4,2.1,10.1,6.7,14.8s13.4,5.9,20,6.1c2.9,0.1,5.3,2.5,5.3,5.4v3.2 c0,3-2.4,5.4-5.4,5.4c-6.7,0-11.9,0.6-15.5,1.7c-3.4,1.1-6.5,3.1-8.8,5.9s-3.5,6.7-3.5,11.6c0,5.3,1.6,9.6,4.6,12.8 s7.5,4.7,13.2,4.7c4.2,0.1,8.3-0.7,12.2-2.2c1.8-0.8,3.6-1.7,5.3-2.7c1.2-0.7,2.6-1.1,4.1-1.1c4.3,0,7.8,3.5,7.7,7.8 c0,2.8-1.5,5.4-4,6.8c-7.9,4.4-16.9,6.7-26,6.7c-10.7,0-19.2-2.8-25.1-8.3s-8.9-13-8.9-22.4c0-12.8,6.3-22.1,18.7-27.7l0.9-0.4 l-0.8-0.5c-11.6-6.8-17.5-16.8-17.5-29.8c-0.2-9.5,3.9-18.6,11.2-24.6c7.5-6.4,17.3-9.7,29.3-9.7c9.2,0,16.8,1.6,22.8,4.6 s11.4,8.2,16.3,15.1l0.4,0.6l0.4-0.6c8.4-13.1,20.8-19.7,37-19.7c16.2,0,28.8,5.8,37.8,17.3s13.6,27.9,13.6,48.6 c0,18-4.1,32.3-12.3,42.3S2068.8,172.6,2053.8,172.6z" class="st0"/><path d="M664,66.4c-0.1-0.1-0.2-0.1-0.2-0.2c-18.6-12.7-43.3-12.6-61.6,0.6c-0.2,0.1-0.4,0.3-0.6,0.4 c-9.8,6.7-15.7,15.2-20.4,27.1s-7,28.1-7,48.1v17.1c0,1.4,0.2,2.9,0.8,4.2c1.3,3,4.3,5,7.5,5.3c5.7,0.5,10.4-4,10.2-9.5V146 c-0.1-10.2,0.5-20.3,1.7-30.4c1-7.9,3-15.6,5.9-22.9c2.8-6.8,5.8-12.1,9-15.6c3-3.4,6.6-6.1,10.6-8c4.2-1.8,8.8-2.8,13.4-2.7 c6.2-0.1,12.3,1.7,17.4,5.2c4.9,3.5,9.2,8.9,12.9,16.3c3.8,7.7,6.3,15.9,7.5,24.4c1.3,8.8,2,20.2,2,33.7v13.6 c0,5.1,4.2,9.3,9.3,9.3l0,0c5.1,0,9.3-4.1,9.3-9.3v-17.9c0-20.9-2.4-37.1-7.1-48.3C680.2,82.7,671.6,71.4,664,66.4z" class="st0"/><path d="M682.3,167.6c-0.3,0-0.7,0-1-0.1c-4.1-0.5-7-4.2-6.4-8.2c0.1-0.5,3.3-24.8,0.8-53.9c-1.6-0.9-2.9-2.3-3.5-4.2 c-6.3-19.8-16.7-31.6-31.1-35c-12.2-2.9-24.4,0.6-30.3,2.3c-23.9,7-36.2-6.8-39.5-15.1c-3.5-8.2-3.3-16.2,0.6-23.4 c6.1-11.3,20-17.9,31-20.2c34.1-7.3,58.7,4.4,72.9,34.7c23.1,49.2,14.3,114,13.9,116.7C689.2,165,686,167.6,682.3,167.6z M631.2,50.7c4.3,0,8.8,0.4,13.4,1.5c8.8,2.1,16.5,6.3,23.1,12.4c-1.6-4.8-3.4-9.5-5.5-14c-14.7-31.3-39-30.2-56-26.5 c-7.7,1.6-17.5,6.3-20.9,12.7c-1.8,3.3-1.8,7,0,11.2c0.1,0.2,0.1,0.1,0.1,0.3c0.8,2,5.6,10.9,21.1,6.4 C611.1,53.4,620.4,50.7,631.2,50.7z" class="st0"/><path d="M1469.4,66.4c-0.1-0.1-0.2-0.1-0.2-0.2c-18.6-12.7-43.3-12.6-61.6,0.6c-0.2,0.1-0.4,0.3-0.6,0.4 c-9.8,6.7-15.7,15.2-20.4,27.1c-4.7,11.9-7,28.1-7,48.1v17.1c0,1.4,0.2,2.9,0.8,4.2c1.3,3,4.3,5,7.5,5.3c5.7,0.5,10.4-4,10.2-9.5 V146c-0.1-10.2,0.5-20.3,1.7-30.4c1-7.9,3-15.6,5.9-22.9c2.8-6.8,5.8-12.1,9-15.6c3-3.4,6.6-6.1,10.6-8c4.2-1.8,8.8-2.8,13.4-2.7 c6.2-0.1,12.3,1.7,17.3,5.2c4.9,3.5,9.2,8.9,12.9,16.3c3.8,7.7,6.3,15.9,7.5,24.4c1.3,8.8,2,20.2,2,33.7v13.6 c0,5.1,4.2,9.3,9.3,9.3l0,0c5.1,0,9.3-4.1,9.3-9.3v-17.9c0-20.9-2.4-37.1-7.1-48.3C1485.6,82.7,1477,71.4,1469.4,66.4z" class="st0"/><path d="M1487.7,167.6c-0.3,0-0.7,0-1-0.1c-4.1-0.5-7-4.2-6.4-8.2c0.1-0.5,3.3-24.8,0.8-53.9c-1.6-0.9-2.9-2.3-3.5-4.2 c-6.3-19.8-16.7-31.6-31.1-35c-12.2-2.9-24.4,0.6-30.3,2.3c-23.9,7-36.2-6.8-39.5-15.1c-3.5-8.2-3.3-16.2,0.6-23.4 c6.1-11.3,20-17.9,31-20.2c34.1-7.3,58.7,4.4,72.9,34.7c23.1,49.2,14.3,114,13.9,116.7C1494.6,165,1491.4,167.6,1487.7,167.6z M1436.6,50.7c4.3,0,8.8,0.4,13.4,1.5c8.8,2.1,16.5,6.3,23.1,12.4c-1.6-4.8-3.4-9.5-5.5-14c-14.7-31.3-39-30.2-56-26.5 c-7.7,1.6-17.5,6.3-20.9,12.7c-1.8,3.3-1.8,7,0,11.2c0.1,0.2,0.1,0.1,0.1,0.3c0.8,2,5.6,10.9,21.1,6.4 C1416.5,53.4,1425.8,50.7,1436.6,50.7z" class="st0"/><path d="M1628.1,38.3c-4.2,0.1-8.3-1.6-11.4-4.6c-3-3-4.8-7.1-4.6-11.4c0-4.2,1.6-8.4,4.6-11.5c2.9-3,7-4.8,11.4-4.8 c4.2-0.1,8.3,1.6,11.2,4.8c2.8,2.8,4.4,6.5,4.5,10.4c0.3,4.5-1.3,9-4.5,12.3C1636.4,36.5,1632.3,38.4,1628.1,38.3L1628.1,38.3z" class="st0"/></g></svg>